<svg width="32" height="32" viewBox="0 0 32 32" fill="none" xmlns="http://www.w3.org/2000/svg">
  <path d="M16 32C24.8366 32 32 24.8366 32 16C32 7.16344 24.8366 0 16 0C7.16344 0 0 7.16344 0 16C0 24.8366 7.16344 32 16 32Z" fill="#F7931A"/>
  <path d="M22.4073 13.8617C22.8096 11.6934 21.1384 10.5317 18.8289 9.77396L19.5376 7.0461L17.9009 6.63989L17.2129 9.29415C16.7834 9.19592 16.3393 10.0509 15.9041 9.95588L16.5967 7.27839L14.9617 6.87218L14.2521 9.59908C13.9008 9.52279 13.5549 9.4464 13.2182 9.36744L13.2209 9.35507L11.0361 8.81073L10.6026 10.5701C10.6026 10.5701 11.8135 10.8497 11.7882 10.874C12.4261 11.021 12.5649 11.4399 12.5397 11.7733L11.7301 14.8857C11.7753 14.897 11.8333 14.9159 11.8986 14.9457C11.8414 14.9321 11.7789 14.9186 11.715 14.9033L10.5924 19.295C10.4991 19.4878 10.276 19.7646 9.83108 19.6568C9.84554 19.6903 8.64775 19.359 8.64775 19.359L7.84491 21.2434L9.91953 21.7606C10.311 21.8497 10.6937 21.9443 11.0685 22.033L10.3525 24.7993L11.9866 25.2055L12.6962 22.4723C13.1445 22.5832 13.5792 22.6832 14.0031 22.7759L13.2953 25.4965L14.932 25.9027L15.648 23.1446C18.6594 23.7128 20.8832 23.5218 21.8474 20.8013C22.6286 18.6402 21.9037 17.3797 20.3488 16.5823C21.5268 16.3124 22.1179 15.4651 22.4073 13.8617ZM18.4456 19.4806C17.8999 21.6416 14.4277 20.4726 13.1689 20.1419L14.1287 16.4656C15.3875 16.7981 19.0123 17.2288 18.4456 19.4806ZM19.0014 13.8393C18.5011 15.8066 15.6163 14.8082 14.5756 14.5312L15.4466 11.1721C16.4873 11.4491 19.5207 11.791 19.0014 13.8393Z" fill="white"/>
</svg>